<svg width="49" height="48" viewBox="0 0 49 48" fill="none" xmlns="http://www.w3.org/2000/svg">
<g opacity="0.4">
<path d="M44.7862 13.1391C42.3887 7.50391 35.4517 7.47189 29.9213 7.50391C21.4818 7.50391 5.40206 10.1614 2.42907 19.9909C2.3012 20.4392 2.20528 20.8874 2.10938 21.3677C2.10938 21.7839 2.10938 22.1681 2.10938 22.6804C2.10938 22.7444 2.10938 22.8085 2.10938 22.8725C2.10938 22.9686 2.14136 23.1287 2.17332 23.3208C2.3971 24.5374 2.62089 25.7541 2.94057 26.9388C3.1004 27.5151 3.32417 28.0594 3.48401 28.6357C3.77172 29.084 3.67583 29.052 3.54796 28.7958C4.09141 29.7564 4.50699 30.781 5.05044 31.7095C5.40209 32.3178 5.81767 32.9261 6.20128 33.5025C6.36112 33.7266 6.48899 33.9187 6.64883 34.1428C8.82263 37.1205 11.6677 41.1227 15.8555 40.4184C18.1891 40.0341 20.6187 38.7854 22.8564 37.921C25.4138 36.9284 27.9712 35.8718 30.4967 34.7832C34.0451 33.2783 38.105 31.8696 41.2378 29.5643C46.6084 25.562 46.992 19.9909 45.01 13.9075C44.9141 13.6514 44.8182 13.3952 44.7223 13.1711L44.7862 13.1391ZM17.294 33.0542C16.9743 33.0222 16.6547 32.9582 16.3989 32.8621C14.6087 32.2858 13.362 30.7169 12.2432 29.2441C10.7087 27.259 8.47097 24.3133 9.68575 21.6558C10.9005 18.9984 14.5768 18.326 16.9744 17.2694C19.8834 15.9566 23.4638 14.3878 26.7245 14.772C29.7295 15.1562 32.5106 17.2374 34.4926 19.4146C37.7533 23.0006 35.164 25.8182 31.3279 27.9634C28.227 29.6603 21.29 33.4705 17.294 33.0862V33.0542Z" fill="#190D03"/>
</g>
</svg>
