<svg width="16" height="16" viewBox="0 0 16 16" fill="none" xmlns="http://www.w3.org/2000/svg">
<path d="M15.1838 2.74993C13.2411 -0.583723 8.44981 -0.935645 4.48266 1.96381C0.515618 4.86321 -1.12586 9.91615 0.816655 13.2498L1.00708 13.5535C2.99181 16.504 7.37958 16.8266 11.1438 14.2986L11.5178 14.0359C15.361 11.227 17.021 6.39721 15.3547 3.06731L15.1838 2.74993ZM10.2991 4.0087C11.1128 4.06849 11.5123 4.39385 11.7278 4.76358C11.9899 5.21336 12.1663 6.07525 11.7619 7.32018C11.3647 8.54323 10.4786 9.84086 9.15745 10.8065C7.83316 11.7743 6.56693 12.0546 5.70141 11.991C4.8877 11.9312 4.48818 11.6059 4.2727 11.2361C4.01059 10.7864 3.83418 9.92447 4.23852 8.67954C4.63579 7.45649 5.52184 6.15887 6.84301 5.19326C8.1673 4.22538 9.43353 3.94513 10.2991 4.0087Z" fill="#FFE099"/>
</svg>
