<svg width="32" height="33" viewBox="0 0 32 33" fill="none" xmlns="http://www.w3.org/2000/svg">
<path d="M21 8.16596H19C18.4477 8.16596 18 8.61368 18 9.16596V23.166C18 23.7182 18.4477 24.166 19 24.166H21C21.5523 24.166 22 23.7182 22 23.166V9.16596C22 8.61368 21.5523 8.16596 21 8.16596Z" fill="black"/>
<path d="M13 8.16596H11C10.4477 8.16596 10 8.61368 10 9.16596V23.166C10 23.7182 10.4477 24.166 11 24.166H13C13.5523 24.166 14 23.7182 14 23.166V9.16596C14 8.61368 13.5523 8.16596 13 8.16596Z" fill="black"/>
<path d="M21 8.16596H19C18.4477 8.16596 18 8.61368 18 9.16596V23.166C18 23.7182 18.4477 24.166 19 24.166H21C21.5523 24.166 22 23.7182 22 23.166V9.16596C22 8.61368 21.5523 8.16596 21 8.16596Z" stroke="#565656" stroke-width="1.5" stroke-linecap="round" stroke-linejoin="round"/>
<path d="M13 8.16596H11C10.4477 8.16596 10 8.61368 10 9.16596V23.166C10 23.7182 10.4477 24.166 11 24.166H13C13.5523 24.166 14 23.7182 14 23.166V9.16596C14 8.61368 13.5523 8.16596 13 8.16596Z" stroke="#565656" stroke-width="1.5" stroke-linecap="round" stroke-linejoin="round"/>
</svg>
